<svg xmlns="http://www.w3.org/2000/svg" viewBox="0 0 48 48" id="data-folders"><g data-name="Data Folders"><ellipse cx="24" cy="4" fill="#42a5f5" rx="16" ry="4"></ellipse><path fill="#424242" d="M38 8.09v1.8c-.64.74-5.36 2.11-14 2.11s-13.36-1.37-14-2.11v-1.8a10.06 10.06 0 0 1-2-1V16c0 3.89 14.36 4 16 4s16-.11 16-4V7.11a10.06 10.06 0 0 1-2 .98Zm0 7.8c-.64.74-5.37 2.11-14 2.11s-13.36-1.37-14-2.11v-3.74C14 13.93 22.74 14 24 14s10-.07 14-1.85Z"></path><path fill="#42a5f5" d="M14 39.06V41H0v-4a1 1 0 0 1 1-1h3l3 2h6a1 1 0 0 1 1 1.06zM0 43h14v4a1 1 0 0 1-1 1H1a1 1 0 0 1-1-1zm31-3.94V41H17v-4a1 1 0 0 1 1-1h3l3 2h6a1 1 0 0 1 1 1.06zM17 43h14v4a1 1 0 0 1-1 1H18a1 1 0 0 1-1-1zm31-3.94V41H34v-4a1 1 0 0 1 1-1h3l3 2h6a1 1 0 0 1 1 1.06zM34 43h14v4a1 1 0 0 1-1 1H35a1 1 0 0 1-1-1z"></path><path fill="#424242" d="M41 27H25v-4a1 1 0 0 0-2 0v4H7a1 1 0 0 0-1 1v5a1 1 0 0 0 2 0v-4h15v4a1 1 0 0 0 2 0v-4h15v4a1 1 0 0 0 2 0v-5a1 1 0 0 0-1-1Z"></path></g></svg>